# xmcd
#
# Track frame offsets: 
#        150
#        9169
#        19949
#        35904
#        47283
#        59689
#        68891
#        88450
#        103222
#        119029
#        128484
#        142089
#        159491
#        172258
#        184972
#        195480
#        210255
#        219307
#        231478
#        243556
#
# Disc length: 3425 seconds
#
# Revision: 0
# Processed by: cddbd v1.5.2PL0 Copyright (c) Steve Scherf et al.
# Submitted via: ExactAudioCopy v0.99pb4
#
DISCID=2f0d5f14
DTITLE=Trini Lopez - Trini Lopez Collection 20 Greatest Hits
DYEAR=1999
DGENRE=Country
TTITLE0=Adalita
TTITLE1=Shame And Scandal
TTITLE2=Granada
TTITLE3=Cuando Caliente El Sol
TTITLE4=Besame Mucho
TTITLE5=Quizas, Quizas, Quizas
TTITLE6=La Bamba
TTITLE7=Kansas City
TTITLE8=America
TTITLE9=Cielito Lindo
TTITLE10=If I Had A Hammer
TTITLE11=This Land Is Your Land
TTITLE12=Lemon Tree
TTITLE13=Michael  (Row The Boat Ashore)
TTITLE14=Bye Bye Blondie
TTITLE15=Guantanamera
TTITLE16=Amor
TTITLE17=Blowin' In The Wind
TTITLE18=Perfidia
TTITLE19=El Condor Pasa (If I Could)
EXTD=
EXTT0=
EXTT1=
EXTT2=
EXTT3=
EXTT4=
EXTT5=
EXTT6=
EXTT7=
EXTT8=
EXTT9=
EXTT10=
EXTT11=
EXTT12=
EXTT13=
EXTT14=
EXTT15=
EXTT16=
EXTT17=
EXTT18=
EXTT19=
PLAYORDER=
